<svg xmlns="http://www.w3.org/2000/svg" width="400" height="400" fill="none" viewBox="0 0 400 400">
  <g clip-path="url(#a)">
    <path fill="#ED7680" d="M0 0h400v400H0z"/>
    <path fill="#E06C77" d="M166.5 135c22.355-137.385 79.458-211.426 188-328 32.4 8.487 60.308 156.22 86.5 181s80.112 102.758 92 135.699C384.534 88.806 307.157 102.452 166.5 135Zm-311 148.5c-2.4-10.373-45.396-74.253-46.5-83-1.104-8.747-77.604-86.5-29-96 0-25.738 4.408-40.778 13-64.5 8.576-23.738 117.004-175.188 133.5-196C-39.849 42.182 3.918 139.896 162.104 271.911 39.794 326.283-27.642 335.707-144.5 283.5Zm357 204c-6 0-106.56 57.219-81-8-6.96-.813-20.624 37.158 8-7.5 84.353-99.7 116.584-161.062 151.644-278.645C384.486 274.191 420.585 338.688 469.5 472c-20.064 20.292-139.712 47.797-166 59-26.288 11.203-62.104-43.484-91-43.5Z"/>
    <path fill="#AD434D" fill-rule="evenodd" d="M310 166.482c-.375-25.759-14.993-51.128-37.433-61.581a52.187 52.187 0 0 0-38.459-2.264c-11.489 3.648-23.01 11.121-34.108 22.877-11.098-11.756-22.619-19.213-34.108-22.877a52.187 52.187 0 0 0-38.459 2.264c-22.44 10.453-37.058 35.822-37.433 61.581v.13c0 37.564 22.359 70.846 46.053 94.212a200.42 200.42 0 0 0 35.575 28.087c5.508 3.355 10.707 6.041 15.319 7.93 4.4 1.791 9.012 3.159 13.053 3.159s8.637-1.368 13.037-3.159c4.628-1.872 9.827-4.559 15.319-7.913a200.46 200.46 0 0 0 35.591-28.104C287.641 237.458 310 204.176 310 166.628v-.146Z" clip-rule="evenodd"/>
    <circle cx="330" cy="65" r="20" fill="#AD434D"/>
  </g>
  <defs>
    <clipPath id="a">
      <path fill="#fff" d="M0 0h400v400H0z"/>
    </clipPath>
  </defs>
</svg>
