<svg xmlns="http://www.w3.org/2000/svg" width="67" height="67" fill="none" viewBox="0 0 67 67">
  <g clip-path="url(#a)">
    <rect width="67" height="67" fill="#ED7680" rx="10"/>
    <path fill="#E06C77" d="M27.889 22.613c3.744-23.012 13.31-35.414 31.49-54.94C64.806-30.906 69.48-6.16 73.868-2.01c4.387 4.15 13.419 17.212 15.41 22.73-24.868-5.845-37.83-3.56-61.389 1.893Zm-52.093 24.873c-.401-1.737-7.603-12.437-7.788-13.902-.185-1.465-12.999-14.489-4.858-16.08 0-4.311.739-6.83 2.178-10.804 1.436-3.976 19.598-29.344 22.361-32.83C-6.674 7.066.656 23.433 27.153 45.545 6.666 54.653-4.63 56.231-24.203 47.486Zm59.798 34.17c-1.005 0-17.849 9.585-13.568-1.34-1.165-.136-3.454 6.224 1.34-1.256 14.13-16.7 19.528-26.978 25.4-46.673C64.403 45.927 70.449 56.73 78.642 79.06c-3.36 3.399-23.401 8.006-27.805 9.883-4.403 1.876-10.402-7.284-15.242-7.287Z"/>
    <path fill="#F59C4B" fill-rule="evenodd" d="M51.924 27.886c-.063-4.315-2.511-8.564-6.27-10.315a8.742 8.742 0 0 0-6.442-.38c-1.924.612-3.854 1.864-5.713 3.833-1.859-1.97-3.789-3.219-5.713-3.832a8.742 8.742 0 0 0-6.442.379c-3.759 1.75-6.207 6-6.27 10.315v.021c0 6.293 3.745 11.867 7.714 15.781a33.567 33.567 0 0 0 5.959 4.705 18.615 18.615 0 0 0 2.566 1.328c.737.3 1.51.529 2.186.529.677 0 1.447-.23 2.184-.53.775-.313 1.646-.763 2.566-1.325a33.572 33.572 0 0 0 5.961-4.707c3.97-3.914 7.714-9.489 7.714-15.778v-.024Z" clip-rule="evenodd"/>
    <circle cx="55.276" cy="10.888" r="3.35" fill="#F59C4B"/>
  </g>
  <defs>
    <clipPath id="a">
      <rect width="67" height="67" fill="#fff" rx="10"/>
    </clipPath>
  </defs>
</svg>
