<svg
  xmlns="http://www.w3.org/2000/svg"
  width="300"
  height="150"
  viewBox="0 0 900 450"
  preserveAspectRatio="xMidYMid meet"
  fill="#487E77"
>
<g transform="translate(0.000000,450.000000) scale(0.100000,-0.100000)" stroke="none">
<path d="M2640 3900 c-19 -19 -20 -35 -20 -600 l0 -580 25 -6 c14 -3 41 -3 61
0 l35 7 -2 530 c0 292 1 532 4 535 2 3 963 6 2136 7 l2131 2 2 -540 3 -540 55
0 55 0 3 583 2 584 -22 18 c-22 18 -91 19 -2236 19 -2194 1 -2212 1 -2232 -19z"/>
<path d="M680 2636 c-5 -15 -9 -380 -10 -878 0 -759 2 -856 15 -876 l16 -22
1383 0 c1304 0 1384 1 1399 18 14 15 15 111 17 881 1 798 -1 865 -16 882 -17
18 -63 19 -1406 19 l-1388 0 -10 -24z m2698 -876 l2 -780 -1292 0 -1293 0 0
778 c0 427 3 779 6 782 4 3 585 4 1291 3 l1283 -3 3 -780z"/>
<path d="M6456 2642 c-15 -17 -16 -101 -15 -1058 l1 -1039 21 -23 20 -22 564
0 563 0 4 22 c7 44 5 87 -5 93 -5 4 -243 6 -529 5 l-520 -1 2 961 3 961 655
-1 c360 0 659 0 664 0 6 0 7 -172 3 -430 -7 -418 -6 -430 12 -440 29 -15 98
-13 104 4 11 28 8 946 -3 966 -11 20 -25 20 -769 20 -724 0 -759 -1 -775 -18z"/>
<path d="M7682 1598 c-9 -9 -12 -156 -12 -599 l0 -587 25 -16 c21 -14 72 -16
410 -16 338 0 389 2 410 16 l25 16 0 587 c0 443 -3 590 -12 599 -17 17 -829
17 -846 0z m737 -115 c3 -4 5 -227 3 -494 l-2 -486 -315 0 c-217 1 -315 4
-315 11 -3 102 1 969 4 974 6 10 618 5 625 -5z"/>
<path d="M8055 775 c-24 -20 -30 -32 -30 -64 0 -101 126 -125 165 -31 15 35 6
63 -28 95 -34 31 -69 31 -107 0z"/>
<path d="M3549 1158 c-1 -2 -2 -27 -4 -56 -2 -46 1 -53 19 -57 12 -3 653 -4
1426 -3 l1405 3 0 55 0 55 -1422 3 c-783 1 -1424 1 -1424 0z"/>
<path d="M7172 892 c-46 -43 -49 -68 -14 -110 58 -73 151 -46 152 45 0 34 -5
46 -31 67 -39 33 -70 33 -107 -2z"/>
<path d="M454 617 c-21 -12 -18 -80 4 -100 17 -16 144 -17 1629 -17 l1610 0
21 23 c27 29 28 58 3 81 -17 16 -133 17 -1635 19 -890 1 -1624 -2 -1632 -6z"/>
<path d="M4268 608 c-25 -25 -22 -66 5 -89 21 -17 49 -18 597 -19 639 0 620
-2 620 63 0 18 -4 38 -9 45 -6 11 -126 13 -602 15 -554 2 -595 1 -611 -15z"/>
</g>
</svg>
